<svg xmlns="http://www.w3.org/2000/svg" viewBox="0 0 2048 2048" width="2048" height="2048">
  <path d="M 1886 550 L 1848 505 L 1847 502 L 1837 492 L 1837 490 L 1813 463 L 1794 438 L 1765 406 L 1764 403 L 1750 389 L 1745 389 L 1742 387 L 1704 386 L 1701 384 L 1680 384 L 1674 382 L 1657 382 L 1654 380 L 1630 380 L 1626 378 L 1583 377 L 1580 375 L 1531 373 L 1528 371 L 1517 372 L 1503 370 L 1476 370 L 1473 368 L 1450 368 L 1448 366 L 1416 366 L 1414 364 L 1331 361 L 1324 363 L 1311 372 L 1288 392 L 1276 400 L 1269 407 L 1267 407 L 1251 422 L 1241 428 L 1231 438 L 1224 442 L 1214 452 L 1201 461 L 1195 463 L 1188 461 L 1179 452 L 1179 450 L 1156 427 L 1156 425 L 1133 402 L 1132 399 L 1086 352 L 1081 352 L 1078 350 L 1072 352 L 1028 352 L 1025 354 L 996 354 L 993 356 L 960 356 L 945 358 L 935 357 L 932 359 L 899 359 L 897 361 L 871 361 L 868 363 L 842 363 L 828 365 L 821 364 L 818 366 L 788 366 L 786 368 L 766 368 L 764 370 L 720 371 L 717 373 L 693 373 L 690 375 L 636 378 L 633 380 L 610 380 L 608 382 L 590 382 L 588 384 L 572 384 L 569 386 L 534 387 L 532 389 L 520 389 L 517 391 L 500 391 L 497 393 L 466 394 L 463 396 L 433 398 L 430 400 L 399 401 L 396 403 L 368 405 L 365 407 L 321 410 L 318 412 L 308 412 L 299 415 L 293 414 L 280 418 L 275 426 L 275 435 L 281 454 L 388 612 L 388 626 L 386 629 L 385 648 L 383 651 L 381 672 L 379 675 L 376 705 L 372 719 L 369 749 L 367 752 L 367 760 L 365 763 L 365 771 L 363 775 L 362 793 L 360 796 L 360 804 L 356 818 L 355 837 L 353 840 L 353 848 L 349 862 L 348 879 L 346 882 L 346 890 L 342 904 L 341 921 L 339 924 L 339 933 L 337 935 L 337 944 L 335 946 L 335 956 L 333 960 L 332 977 L 330 979 L 330 988 L 328 990 L 325 1021 L 323 1023 L 323 1032 L 321 1034 L 321 1043 L 319 1046 L 318 1063 L 316 1065 L 316 1074 L 314 1076 L 314 1087 L 312 1089 L 311 1106 L 309 1110 L 309 1118 L 307 1120 L 307 1131 L 305 1133 L 305 1142 L 303 1145 L 302 1162 L 300 1164 L 300 1171 L 298 1174 L 298 1186 L 296 1189 L 295 1206 L 291 1218 L 291 1228 L 289 1231 L 286 1261 L 282 1275 L 281 1293 L 279 1297 L 279 1305 L 277 1308 L 277 1316 L 275 1319 L 275 1327 L 273 1331 L 270 1360 L 268 1363 L 265 1389 L 263 1392 L 263 1402 L 259 1416 L 256 1445 L 254 1447 L 254 1456 L 252 1458 L 249 1489 L 204 1573 L 201 1576 L 190 1599 L 187 1602 L 183 1613 L 171 1632 L 162 1652 L 159 1655 L 155 1663 L 155 1669 L 157 1673 L 170 1688 L 180 1690 L 183 1688 L 228 1688 L 231 1686 L 262 1686 L 265 1684 L 356 1683 L 359 1681 L 410 1681 L 413 1679 L 442 1679 L 445 1677 L 541 1676 L 545 1674 L 606 1674 L 608 1672 L 647 1672 L 650 1670 L 752 1669 L 781 1665 L 785 1661 L 791 1645 L 791 1639 L 787 1630 L 775 1615 L 760 1591 L 743 1576 L 737 1564 L 733 1560 L 723 1557 L 718 1552 L 707 1534 L 687 1507 L 686 1499 L 677 1485 L 662 1472 L 658 1464 L 653 1459 L 651 1452 L 641 1442 L 642 1418 L 644 1416 L 644 1407 L 646 1405 L 649 1373 L 651 1370 L 651 1361 L 653 1359 L 653 1350 L 655 1348 L 656 1329 L 658 1326 L 658 1317 L 660 1315 L 660 1303 L 664 1290 L 665 1270 L 667 1267 L 667 1259 L 671 1246 L 672 1228 L 674 1225 L 676 1205 L 678 1203 L 679 1184 L 681 1181 L 681 1172 L 683 1170 L 683 1165 L 688 1160 L 698 1159 L 702 1157 L 724 1157 L 727 1155 L 763 1155 L 766 1153 L 797 1153 L 800 1151 L 868 1150 L 871 1148 L 904 1148 L 907 1146 L 944 1146 L 946 1144 L 958 1143 L 970 1132 L 972 1132 L 997 1107 L 1000 1106 L 1047 1062 L 1053 1058 L 1059 1057 L 1063 1058 L 1067 1062 L 1068 1071 L 1066 1074 L 1066 1083 L 1064 1085 L 1064 1090 L 1062 1093 L 1059 1123 L 1057 1126 L 1057 1133 L 1055 1135 L 1052 1164 L 1050 1166 L 1045 1204 L 1043 1207 L 1043 1215 L 1039 1229 L 1038 1246 L 1036 1249 L 1036 1256 L 1034 1258 L 1031 1286 L 1023 1322 L 1020 1351 L 1016 1364 L 1015 1381 L 1013 1383 L 1013 1393 L 1009 1406 L 1008 1423 L 1006 1425 L 1006 1436 L 1004 1438 L 1004 1445 L 1002 1448 L 1002 1459 L 1008 1469 L 1018 1479 L 1042 1512 L 1052 1523 L 1064 1539 L 1064 1541 L 1108 1595 L 1112 1602 L 1114 1628 L 1121 1642 L 1131 1654 L 1147 1682 L 1154 1689 L 1161 1691 L 1414 1693 L 1416 1695 L 1539 1695 L 1542 1697 L 1616 1697 L 1619 1695 L 1625 1695 L 1644 1679 L 1646 1679 L 1655 1670 L 1657 1670 L 1693 1637 L 1695 1637 L 1705 1629 L 1718 1616 L 1753 1586 L 1756 1585 L 1768 1573 L 1770 1573 L 1801 1545 L 1803 1545 L 1812 1536 L 1814 1536 L 1819 1531 L 1825 1517 L 1828 1480 L 1830 1477 L 1832 1449 L 1834 1445 L 1835 1420 L 1837 1417 L 1839 1392 L 1841 1389 L 1842 1364 L 1844 1361 L 1846 1333 L 1848 1330 L 1849 1306 L 1851 1303 L 1851 1292 L 1853 1290 L 1856 1249 L 1858 1246 L 1858 1236 L 1860 1234 L 1860 1220 L 1862 1217 L 1862 1205 L 1864 1202 L 1865 1176 L 1867 1174 L 1867 1162 L 1869 1159 L 1869 1147 L 1871 1144 L 1872 1122 L 1874 1119 L 1874 1104 L 1876 1101 L 1876 1091 L 1878 1088 L 1881 1049 L 1883 1046 L 1883 1036 L 1885 1033 L 1886 1008 L 1888 1005 L 1888 991 L 1890 988 L 1890 973 L 1892 970 L 1892 950 L 1890 946 L 1841 884 L 1842 859 L 1844 856 L 1846 835 L 1849 825 L 1849 813 L 1851 810 L 1851 802 L 1855 788 L 1856 768 L 1860 757 L 1860 745 L 1864 731 L 1865 712 L 1867 710 L 1867 698 L 1869 695 L 1872 665 L 1874 662 L 1874 652 L 1876 649 L 1876 639 L 1878 636 L 1881 604 L 1883 602 L 1883 595 L 1885 592 L 1886 572 L 1888 569 L 1888 554 Z M 1435 1310 L 1440 1315 L 1440 1321 L 1431 1338 L 1431 1343 L 1424 1355 L 1424 1359 L 1421 1363 L 1421 1368 L 1408 1398 L 1408 1405 L 1399 1423 L 1398 1433 L 1392 1451 L 1391 1465 L 1389 1468 L 1389 1473 L 1387 1475 L 1385 1500 L 1383 1503 L 1383 1551 L 1376 1557 L 1365 1559 L 1360 1563 L 1354 1564 L 1349 1562 L 1345 1558 L 1346 1521 L 1348 1518 L 1348 1508 L 1350 1505 L 1350 1500 L 1352 1498 L 1352 1489 L 1354 1486 L 1355 1475 L 1359 1466 L 1359 1461 L 1362 1455 L 1362 1450 L 1387 1382 L 1394 1370 L 1394 1366 L 1398 1360 L 1398 1357 L 1412 1332 L 1412 1329 L 1419 1320 L 1420 1316 L 1426 1310 Z M 1287 1046 L 1295 1040 L 1324 1031 L 1358 1031 L 1383 1039 L 1390 1044 L 1397 1046 L 1402 1051 L 1412 1056 L 1424 1068 L 1427 1069 L 1445 1089 L 1452 1099 L 1461 1117 L 1465 1129 L 1466 1142 L 1462 1146 L 1452 1146 L 1425 1123 L 1423 1123 L 1410 1113 L 1393 1105 L 1387 1099 L 1387 1087 L 1381 1079 L 1362 1076 L 1358 1077 L 1345 1074 L 1340 1070 L 1339 1065 L 1335 1059 L 1326 1056 L 1306 1060 L 1300 1063 L 1292 1061 L 1287 1056 Z M 1501 1009 L 1509 1012 L 1519 1023 L 1523 1036 L 1532 1047 L 1532 1056 L 1535 1064 L 1535 1080 L 1533 1083 L 1533 1093 L 1530 1101 L 1530 1106 L 1516 1136 L 1508 1142 L 1514 1147 L 1516 1153 L 1519 1156 L 1527 1158 L 1531 1157 L 1536 1159 L 1540 1163 L 1541 1168 L 1537 1175 L 1537 1184 L 1543 1192 L 1551 1193 L 1558 1192 L 1560 1190 L 1566 1192 L 1571 1190 L 1576 1190 L 1578 1192 L 1590 1192 L 1599 1196 L 1606 1197 L 1631 1210 L 1664 1244 L 1678 1272 L 1678 1283 L 1674 1287 L 1667 1289 L 1664 1287 L 1656 1286 L 1647 1280 L 1637 1259 L 1628 1247 L 1619 1245 L 1607 1249 L 1600 1248 L 1583 1233 L 1550 1213 L 1540 1210 L 1528 1212 L 1523 1219 L 1523 1227 L 1525 1231 L 1549 1256 L 1551 1262 L 1555 1266 L 1560 1276 L 1560 1280 L 1563 1284 L 1569 1305 L 1572 1331 L 1571 1355 L 1569 1360 L 1564 1365 L 1560 1366 L 1554 1365 L 1551 1362 L 1547 1361 L 1541 1355 L 1541 1302 L 1539 1297 L 1535 1293 L 1526 1291 L 1521 1286 L 1516 1274 L 1516 1269 L 1505 1248 L 1504 1243 L 1495 1236 L 1488 1235 L 1480 1237 L 1477 1240 L 1472 1254 L 1467 1259 L 1463 1260 L 1457 1259 L 1447 1247 L 1442 1247 L 1439 1245 L 1430 1247 L 1425 1252 L 1419 1254 L 1408 1263 L 1403 1265 L 1389 1277 L 1381 1278 L 1372 1275 L 1363 1277 L 1355 1285 L 1344 1303 L 1333 1315 L 1324 1317 L 1315 1315 L 1311 1310 L 1311 1303 L 1322 1285 L 1337 1268 L 1340 1267 L 1359 1249 L 1369 1245 L 1373 1241 L 1392 1231 L 1411 1224 L 1416 1224 L 1418 1222 L 1429 1222 L 1431 1220 L 1436 1220 L 1442 1214 L 1444 1209 L 1442 1200 L 1436 1194 L 1431 1194 L 1429 1192 L 1415 1192 L 1409 1190 L 1404 1190 L 1402 1192 L 1369 1192 L 1363 1190 L 1353 1178 L 1348 1178 L 1345 1176 L 1336 1178 L 1332 1181 L 1329 1181 L 1298 1195 L 1292 1194 L 1286 1189 L 1279 1187 L 1267 1189 L 1260 1184 L 1260 1177 L 1283 1160 L 1313 1146 L 1326 1143 L 1356 1141 L 1359 1143 L 1379 1144 L 1402 1151 L 1426 1162 L 1431 1166 L 1437 1167 L 1449 1165 L 1454 1158 L 1454 1153 L 1459 1148 L 1469 1148 L 1474 1153 L 1479 1153 L 1481 1155 L 1491 1153 L 1495 1147 L 1502 1142 L 1496 1135 L 1496 1129 L 1498 1126 L 1498 1099 L 1496 1096 L 1496 1085 L 1507 1075 L 1509 1071 L 1509 1063 L 1507 1057 L 1489 1031 L 1491 1024 L 1491 1015 L 1495 1011 Z M 1442 718 L 1446 714 L 1452 712 L 1463 712 L 1466 714 L 1499 714 L 1502 716 L 1581 719 L 1587 721 L 1608 742 L 1610 742 L 1629 761 L 1632 762 L 1639 769 L 1639 776 L 1636 780 L 1628 783 L 1621 781 L 1593 781 L 1591 779 L 1561 779 L 1558 777 L 1446 776 L 1440 774 L 1435 769 L 1436 750 L 1438 747 L 1438 738 L 1440 736 L 1440 726 L 1442 723 Z M 853 672 L 858 677 L 858 687 L 854 699 L 851 732 L 849 735 L 847 753 L 843 766 L 842 781 L 840 783 L 840 794 L 838 796 L 838 805 L 836 808 L 835 823 L 833 826 L 833 836 L 831 838 L 831 845 L 829 848 L 829 859 L 826 868 L 826 878 L 824 881 L 824 889 L 822 895 L 818 899 L 814 899 L 812 901 L 786 901 L 783 903 L 735 904 L 729 902 L 725 897 L 725 890 L 727 888 L 727 878 L 729 875 L 729 867 L 731 863 L 734 834 L 738 821 L 739 804 L 741 802 L 741 790 L 743 787 L 743 780 L 745 778 L 748 747 L 750 745 L 750 738 L 752 735 L 752 724 L 754 720 L 755 703 L 757 701 L 759 683 L 763 679 L 772 677 L 774 675 L 795 675 L 798 673 L 820 673 L 823 671 L 843 670 Z" fill="#FFFFFF" fill-rule="evenodd" clip-rule="evenodd"/>
</svg>
